<svg width="760" height="200" viewBox="0 0 760 200" xmlns="http://www.w3.org/2000/svg">
  <defs>
    <radialGradient id="glow-cl" cx="14%" cy="30%" r="55%">
      <stop offset="0%" stop-color="#d97757" stop-opacity="0.12"/>
      <stop offset="100%" stop-color="#d97757" stop-opacity="0"/>
    </radialGradient>
  </defs>
  <style>
    .mono { font-family:'SF Mono','Cascadia Code','Fira Code','Courier New',monospace; }
    .sans { font-family:'Helvetica Neue',Arial,sans-serif; }
    @keyframes cur { 0%,49%{opacity:1} 50%,100%{opacity:0} }
    @keyframes spin { to { transform:rotate(360deg) } }
    .cur { animation: cur 1.1s step-end infinite; }
    .spark { animation: spin 26s linear infinite; }

    @keyframes walk { 0%{transform:translate(-3px,0)} 25%{transform:translate(0,-3px)} 50%{transform:translate(3px,0)} 75%{transform:translate(0,-3px)} 100%{transform:translate(-3px,0)} }
    @keyframes stepA { 0%,100%{transform:translateY(0)} 50%{transform:translateY(2.5px)} }
    @keyframes stepB { 0%,100%{transform:translateY(2.5px)} 50%{transform:translateY(0)} }
    @keyframes waveA { 0%,100%{transform:translateY(0)} 50%{transform:translateY(-2.5px)} }
    @keyframes waveB { 0%,100%{transform:translateY(-2.5px)} 50%{transform:translateY(0)} }
    @keyframes blinkBoth { 0%,89%{opacity:0} 92%,96%{opacity:1} 99%,100%{opacity:0} }
    @keyframes blinkWink { 0%,42%{opacity:0} 45%,49%{opacity:1} 52%,89%{opacity:0} 92%,96%{opacity:1} 99%,100%{opacity:0} }
    .mascot { animation: walk 1.5s ease-in-out infinite; }
    .leg-a { animation: stepA 0.75s ease-in-out infinite; }
    .leg-b { animation: stepB 0.75s ease-in-out infinite; }
    .claw-a { animation: waveA 1.9s ease-in-out infinite; }
    .claw-b { animation: waveB 1.9s ease-in-out infinite; }
    .lid-l { animation: blinkBoth 6s ease-in-out infinite; opacity:0; }
    .lid-r { animation: blinkWink 6s ease-in-out infinite; opacity:0; }
  </style>

  <rect width="760" height="200" rx="10" fill="#07030f"/>
  <rect width="760" height="200" rx="10" fill="url(#glow-cl)"/>
  <rect width="760" height="200" rx="10" fill="none" stroke="#3a1d12" stroke-width="1"/>

  <!-- mascot -->
  <g class="mascot" shape-rendering="crispEdges">
    <rect class="claw-a" x="44" y="47" width="7" height="7" fill="#5c2e1a"/>
<rect class="claw-a" x="51" y="47" width="7" height="7" fill="#5c2e1a"/>
<rect class="claw-b" x="156" y="47" width="7" height="7" fill="#5c2e1a"/>
<rect class="claw-b" x="163" y="47" width="7" height="7" fill="#5c2e1a"/>
<rect class="claw-a" x="37" y="54" width="7" height="7" fill="#5c2e1a"/>
<rect class="claw-a" x="44" y="54" width="7" height="7" fill="#d97757"/>
<rect class="claw-a" x="51" y="54" width="7" height="7" fill="#d97757"/>
<rect class="claw-a" x="58" y="54" width="7" height="7" fill="#5c2e1a"/>
<rect class="claw-b" x="149" y="54" width="7" height="7" fill="#5c2e1a"/>
<rect class="claw-b" x="156" y="54" width="7" height="7" fill="#d97757"/>
<rect class="claw-b" x="163" y="54" width="7" height="7" fill="#d97757"/>
<rect class="claw-b" x="170" y="54" width="7" height="7" fill="#5c2e1a"/>
<rect class="claw-a" x="37" y="61" width="7" height="7" fill="#5c2e1a"/>
<rect class="claw-a" x="44" y="61" width="7" height="7" fill="#d97757"/>
<rect class="claw-a" x="51" y="61" width="7" height="7" fill="#5c2e1a"/>
<rect class="claw-b" x="156" y="61" width="7" height="7" fill="#5c2e1a"/>
<rect class="claw-b" x="163" y="61" width="7" height="7" fill="#d97757"/>
<rect class="claw-b" x="170" y="61" width="7" height="7" fill="#5c2e1a"/>
<rect class="claw-a" x="44" y="68" width="7" height="7" fill="#d97757"/>
<rect class="claw-a" x="51" y="68" width="7" height="7" fill="#5c2e1a"/>
<rect class="claw-b" x="156" y="68" width="7" height="7" fill="#5c2e1a"/>
<rect class="claw-b" x="163" y="68" width="7" height="7" fill="#d97757"/>
<rect class="claw-a" x="51" y="75" width="7" height="7" fill="#d97757"/>
<rect class="claw-a" x="58" y="75" width="7" height="7" fill="#d97757"/>
<rect class="claw-b" x="149" y="75" width="7" height="7" fill="#d97757"/>
<rect class="claw-b" x="156" y="75" width="7" height="7" fill="#d97757"/>
<rect x="51" y="82" width="7" height="7" fill="#5c2e1a"/>
<rect x="58" y="82" width="7" height="7" fill="#5c2e1a"/>
<rect x="65" y="82" width="7" height="7" fill="#5c2e1a"/>
<rect x="72" y="82" width="7" height="7" fill="#5c2e1a"/>
<rect x="79" y="82" width="7" height="7" fill="#5c2e1a"/>
<rect x="86" y="82" width="7" height="7" fill="#5c2e1a"/>
<rect x="93" y="82" width="7" height="7" fill="#5c2e1a"/>
<rect x="100" y="82" width="7" height="7" fill="#5c2e1a"/>
<rect x="107" y="82" width="7" height="7" fill="#5c2e1a"/>
<rect x="114" y="82" width="7" height="7" fill="#5c2e1a"/>
<rect x="121" y="82" width="7" height="7" fill="#5c2e1a"/>
<rect x="128" y="82" width="7" height="7" fill="#5c2e1a"/>
<rect x="135" y="82" width="7" height="7" fill="#5c2e1a"/>
<rect x="142" y="82" width="7" height="7" fill="#5c2e1a"/>
<rect x="149" y="82" width="7" height="7" fill="#5c2e1a"/>
<rect x="156" y="82" width="7" height="7" fill="#5c2e1a"/>
<rect x="51" y="89" width="7" height="7" fill="#5c2e1a"/>
<rect x="58" y="89" width="7" height="7" fill="#e8956f"/>
<rect x="65" y="89" width="7" height="7" fill="#e8956f"/>
<rect x="72" y="89" width="7" height="7" fill="#d97757"/>
<rect x="79" y="89" width="7" height="7" fill="#d97757"/>
<rect x="86" y="89" width="7" height="7" fill="#d97757"/>
<rect x="93" y="89" width="7" height="7" fill="#d97757"/>
<rect x="100" y="89" width="7" height="7" fill="#d97757"/>
<rect x="107" y="89" width="7" height="7" fill="#d97757"/>
<rect x="114" y="89" width="7" height="7" fill="#d97757"/>
<rect x="121" y="89" width="7" height="7" fill="#d97757"/>
<rect x="128" y="89" width="7" height="7" fill="#d97757"/>
<rect x="135" y="89" width="7" height="7" fill="#d97757"/>
<rect x="142" y="89" width="7" height="7" fill="#c6613f"/>
<rect x="149" y="89" width="7" height="7" fill="#c6613f"/>
<rect x="156" y="89" width="7" height="7" fill="#5c2e1a"/>
<rect x="51" y="96" width="7" height="7" fill="#5c2e1a"/>
<rect x="58" y="96" width="7" height="7" fill="#d97757"/>
<rect x="65" y="96" width="7" height="7" fill="#d97757"/>
<rect x="72" y="96" width="7" height="7" fill="#fdf8f0"/>
<rect x="79" y="96" width="7" height="7" fill="#2a1408"/>
<rect x="86" y="96" width="7" height="7" fill="#d97757"/>
<rect x="93" y="96" width="7" height="7" fill="#d97757"/>
<rect x="100" y="96" width="7" height="7" fill="#d97757"/>
<rect x="107" y="96" width="7" height="7" fill="#d97757"/>
<rect x="114" y="96" width="7" height="7" fill="#d97757"/>
<rect x="121" y="96" width="7" height="7" fill="#d97757"/>
<rect x="128" y="96" width="7" height="7" fill="#fdf8f0"/>
<rect x="135" y="96" width="7" height="7" fill="#2a1408"/>
<rect x="142" y="96" width="7" height="7" fill="#d97757"/>
<rect x="149" y="96" width="7" height="7" fill="#d97757"/>
<rect x="156" y="96" width="7" height="7" fill="#5c2e1a"/>
<rect x="51" y="103" width="7" height="7" fill="#5c2e1a"/>
<rect x="58" y="103" width="7" height="7" fill="#d97757"/>
<rect x="65" y="103" width="7" height="7" fill="#d97757"/>
<rect x="72" y="103" width="7" height="7" fill="#2a1408"/>
<rect x="79" y="103" width="7" height="7" fill="#2a1408"/>
<rect x="86" y="103" width="7" height="7" fill="#d97757"/>
<rect x="93" y="103" width="7" height="7" fill="#d97757"/>
<rect x="100" y="103" width="7" height="7" fill="#d97757"/>
<rect x="107" y="103" width="7" height="7" fill="#d97757"/>
<rect x="114" y="103" width="7" height="7" fill="#d97757"/>
<rect x="121" y="103" width="7" height="7" fill="#d97757"/>
<rect x="128" y="103" width="7" height="7" fill="#2a1408"/>
<rect x="135" y="103" width="7" height="7" fill="#2a1408"/>
<rect x="142" y="103" width="7" height="7" fill="#d97757"/>
<rect x="149" y="103" width="7" height="7" fill="#d97757"/>
<rect x="156" y="103" width="7" height="7" fill="#5c2e1a"/>
<rect x="51" y="110" width="7" height="7" fill="#5c2e1a"/>
<rect x="58" y="110" width="7" height="7" fill="#d97757"/>
<rect x="65" y="110" width="7" height="7" fill="#ef9a86"/>
<rect x="72" y="110" width="7" height="7" fill="#d97757"/>
<rect x="79" y="110" width="7" height="7" fill="#d97757"/>
<rect x="86" y="110" width="7" height="7" fill="#d97757"/>
<rect x="93" y="110" width="7" height="7" fill="#d97757"/>
<rect x="100" y="110" width="7" height="7" fill="#d97757"/>
<rect x="107" y="110" width="7" height="7" fill="#d97757"/>
<rect x="114" y="110" width="7" height="7" fill="#d97757"/>
<rect x="121" y="110" width="7" height="7" fill="#d97757"/>
<rect x="128" y="110" width="7" height="7" fill="#d97757"/>
<rect x="135" y="110" width="7" height="7" fill="#d97757"/>
<rect x="142" y="110" width="7" height="7" fill="#ef9a86"/>
<rect x="149" y="110" width="7" height="7" fill="#d97757"/>
<rect x="156" y="110" width="7" height="7" fill="#5c2e1a"/>
<rect x="51" y="117" width="7" height="7" fill="#5c2e1a"/>
<rect x="58" y="117" width="7" height="7" fill="#d97757"/>
<rect x="65" y="117" width="7" height="7" fill="#d97757"/>
<rect x="72" y="117" width="7" height="7" fill="#d97757"/>
<rect x="79" y="117" width="7" height="7" fill="#d97757"/>
<rect x="86" y="117" width="7" height="7" fill="#6a3220"/>
<rect x="93" y="117" width="7" height="7" fill="#d97757"/>
<rect x="100" y="117" width="7" height="7" fill="#d97757"/>
<rect x="107" y="117" width="7" height="7" fill="#d97757"/>
<rect x="114" y="117" width="7" height="7" fill="#d97757"/>
<rect x="121" y="117" width="7" height="7" fill="#6a3220"/>
<rect x="128" y="117" width="7" height="7" fill="#d97757"/>
<rect x="135" y="117" width="7" height="7" fill="#d97757"/>
<rect x="142" y="117" width="7" height="7" fill="#d97757"/>
<rect x="149" y="117" width="7" height="7" fill="#d97757"/>
<rect x="156" y="117" width="7" height="7" fill="#5c2e1a"/>
<rect x="51" y="124" width="7" height="7" fill="#5c2e1a"/>
<rect x="58" y="124" width="7" height="7" fill="#d97757"/>
<rect x="65" y="124" width="7" height="7" fill="#d97757"/>
<rect x="72" y="124" width="7" height="7" fill="#d97757"/>
<rect x="79" y="124" width="7" height="7" fill="#d97757"/>
<rect x="86" y="124" width="7" height="7" fill="#d97757"/>
<rect x="93" y="124" width="7" height="7" fill="#6a3220"/>
<rect x="100" y="124" width="7" height="7" fill="#6a3220"/>
<rect x="107" y="124" width="7" height="7" fill="#6a3220"/>
<rect x="114" y="124" width="7" height="7" fill="#6a3220"/>
<rect x="121" y="124" width="7" height="7" fill="#d97757"/>
<rect x="128" y="124" width="7" height="7" fill="#d97757"/>
<rect x="135" y="124" width="7" height="7" fill="#d97757"/>
<rect x="142" y="124" width="7" height="7" fill="#d97757"/>
<rect x="149" y="124" width="7" height="7" fill="#d97757"/>
<rect x="156" y="124" width="7" height="7" fill="#5c2e1a"/>
<rect x="51" y="131" width="7" height="7" fill="#5c2e1a"/>
<rect x="58" y="131" width="7" height="7" fill="#c6613f"/>
<rect x="65" y="131" width="7" height="7" fill="#d97757"/>
<rect x="72" y="131" width="7" height="7" fill="#d97757"/>
<rect x="79" y="131" width="7" height="7" fill="#d97757"/>
<rect x="86" y="131" width="7" height="7" fill="#d97757"/>
<rect x="93" y="131" width="7" height="7" fill="#d97757"/>
<rect x="100" y="131" width="7" height="7" fill="#d97757"/>
<rect x="107" y="131" width="7" height="7" fill="#d97757"/>
<rect x="114" y="131" width="7" height="7" fill="#d97757"/>
<rect x="121" y="131" width="7" height="7" fill="#d97757"/>
<rect x="128" y="131" width="7" height="7" fill="#d97757"/>
<rect x="135" y="131" width="7" height="7" fill="#d97757"/>
<rect x="142" y="131" width="7" height="7" fill="#d97757"/>
<rect x="149" y="131" width="7" height="7" fill="#c6613f"/>
<rect x="156" y="131" width="7" height="7" fill="#5c2e1a"/>
<rect x="51" y="138" width="7" height="7" fill="#5c2e1a"/>
<rect x="58" y="138" width="7" height="7" fill="#5c2e1a"/>
<rect x="65" y="138" width="7" height="7" fill="#d97757"/>
<rect x="72" y="138" width="7" height="7" fill="#d97757"/>
<rect x="79" y="138" width="7" height="7" fill="#d97757"/>
<rect x="86" y="138" width="7" height="7" fill="#d97757"/>
<rect x="93" y="138" width="7" height="7" fill="#d97757"/>
<rect x="100" y="138" width="7" height="7" fill="#d97757"/>
<rect x="107" y="138" width="7" height="7" fill="#d97757"/>
<rect x="114" y="138" width="7" height="7" fill="#d97757"/>
<rect x="121" y="138" width="7" height="7" fill="#d97757"/>
<rect x="128" y="138" width="7" height="7" fill="#d97757"/>
<rect x="135" y="138" width="7" height="7" fill="#d97757"/>
<rect x="142" y="138" width="7" height="7" fill="#d97757"/>
<rect x="149" y="138" width="7" height="7" fill="#5c2e1a"/>
<rect x="156" y="138" width="7" height="7" fill="#5c2e1a"/>
<rect class="leg-a" x="44" y="145" width="7" height="7" fill="#5c2e1a"/>
<rect class="leg-a" x="58" y="145" width="7" height="7" fill="#5c2e1a"/>
<rect class="leg-a" x="79" y="145" width="7" height="7" fill="#5c2e1a"/>
<rect class="leg-b" x="128" y="145" width="7" height="7" fill="#5c2e1a"/>
<rect class="leg-b" x="149" y="145" width="7" height="7" fill="#5c2e1a"/>
<rect class="leg-b" x="163" y="145" width="7" height="7" fill="#5c2e1a"/>
    <rect class="lid-l" x="72" y="96" width="14" height="14" fill="#d97757"/>
<rect class="lid-r" x="128" y="96" width="14" height="14" fill="#d97757"/>
  </g>

  <!-- divider -->
  <line x1="205" y1="30" x2="205" y2="170" stroke="#2a1408" stroke-width="1"/>

  <!-- brand mark + title -->
  <g class="spark" style="transform-origin:252px 40px">
<polygon points="252,24 254.6,40 249.4,40" fill="#d97757" fill-opacity="1.0" transform="rotate(0.0 252 40)"/>
<polygon points="252,24 254.6,40 249.4,40" fill="#d97757" fill-opacity="0.7" transform="rotate(30.0 252 40)"/>
<polygon points="252,24 254.6,40 249.4,40" fill="#d97757" fill-opacity="1.0" transform="rotate(60.0 252 40)"/>
<polygon points="252,24 254.6,40 249.4,40" fill="#d97757" fill-opacity="0.7" transform="rotate(90.0 252 40)"/>
<polygon points="252,24 254.6,40 249.4,40" fill="#d97757" fill-opacity="1.0" transform="rotate(120.0 252 40)"/>
<polygon points="252,24 254.6,40 249.4,40" fill="#d97757" fill-opacity="0.7" transform="rotate(150.0 252 40)"/>
<polygon points="252,24 254.6,40 249.4,40" fill="#d97757" fill-opacity="1.0" transform="rotate(180.0 252 40)"/>
<polygon points="252,24 254.6,40 249.4,40" fill="#d97757" fill-opacity="0.7" transform="rotate(210.0 252 40)"/>
<polygon points="252,24 254.6,40 249.4,40" fill="#d97757" fill-opacity="1.0" transform="rotate(240.0 252 40)"/>
<polygon points="252,24 254.6,40 249.4,40" fill="#d97757" fill-opacity="0.7" transform="rotate(270.0 252 40)"/>
<polygon points="252,24 254.6,40 249.4,40" fill="#d97757" fill-opacity="1.0" transform="rotate(300.0 252 40)"/>
<polygon points="252,24 254.6,40 249.4,40" fill="#d97757" fill-opacity="0.7" transform="rotate(330.0 252 40)"/>
<circle cx="252" cy="40" r="3.2" fill="#e8956f"/>
</g>
  <text class="sans" x="278" y="46" font-size="23" font-weight="700" fill="#d97757" letter-spacing="1.5">ANTHROPIC</text>
  <text class="sans" x="278" y="46" font-size="23" font-weight="700" fill="#d97757" letter-spacing="1.5" opacity="0"> </text>
  <text class="sans" x="468" y="46" font-size="23" font-weight="300" fill="#8a6f5f" letter-spacing="1.5">PARTNER</text>

  <!-- subtitle -->
  <text class="mono" x="236" y="80" font-size="13" fill="#9d7cc0">Claude Code <tspan fill="#3b1060">·</tspan> <tspan fill="#8a6f5f">daily driver, agents in prod</tspan> <tspan fill="#3b1060">·</tspan> <tspan fill="#c6613f">MCP</tspan></text>

  <!-- terminal -->
  <rect x="236" y="104" width="500" height="74" rx="8" fill="#0c0713" stroke="#241033" stroke-width="1"/>
  <circle cx="254" cy="122" r="5" fill="#ff5f56"/><circle cx="271" cy="122" r="5" fill="#ffbd2e"/><circle cx="288" cy="122" r="5" fill="#27c93f"/>
  <line x1="236" y1="134" x2="736" y2="134" stroke="#1a0c26" stroke-width="1"/>
  <text class="mono" x="254" y="160" font-size="15">
    <tspan fill="#d97757">$ </tspan><tspan fill="#f0eee6">i use claude code</tspan>
  </text>
  <rect class="cur" x="425" y="149" width="9" height="15" fill="#d97757"/>
</svg>
