<svg width="284" height="200" viewBox="0 0 284 200" xmlns="http://www.w3.org/2000/svg" shape-rendering="crispEdges">
  <style>
    @keyframes bob { 0%,100%{transform:translateY(0)} 50%{transform:translateY(-4px)} }
    @keyframes blink { 0%,90%,100%{opacity:0} 93%,97%{opacity:1} }
    @keyframes antglow { 0%,100%{opacity:0.5} 50%{opacity:1} }
    .mascot { animation: bob 3.2s ease-in-out infinite; }
    .lid { animation: blink 5.5s ease-in-out infinite; opacity:0; }
    .ant { animation: antglow 2.2s ease-in-out infinite; }
  </style>
  <g class="mascot">
    <rect x="34" y="10" width="12" height="12" fill="#5c2e1a"/>
<rect x="46" y="10" width="12" height="12" fill="#5c2e1a"/>
<rect x="226" y="10" width="12" height="12" fill="#5c2e1a"/>
<rect x="238" y="10" width="12" height="12" fill="#5c2e1a"/>
<rect x="22" y="22" width="12" height="12" fill="#5c2e1a"/>
<rect x="34" y="22" width="12" height="12" fill="#d97757"/>
<rect x="46" y="22" width="12" height="12" fill="#d97757"/>
<rect x="58" y="22" width="12" height="12" fill="#5c2e1a"/>
<rect x="214" y="22" width="12" height="12" fill="#5c2e1a"/>
<rect x="226" y="22" width="12" height="12" fill="#d97757"/>
<rect x="238" y="22" width="12" height="12" fill="#d97757"/>
<rect x="250" y="22" width="12" height="12" fill="#5c2e1a"/>
<rect x="22" y="34" width="12" height="12" fill="#5c2e1a"/>
<rect x="34" y="34" width="12" height="12" fill="#d97757"/>
<rect x="46" y="34" width="12" height="12" fill="#5c2e1a"/>
<rect x="226" y="34" width="12" height="12" fill="#5c2e1a"/>
<rect x="238" y="34" width="12" height="12" fill="#d97757"/>
<rect x="250" y="34" width="12" height="12" fill="#5c2e1a"/>
<rect x="34" y="46" width="12" height="12" fill="#d97757"/>
<rect x="46" y="46" width="12" height="12" fill="#5c2e1a"/>
<rect x="226" y="46" width="12" height="12" fill="#5c2e1a"/>
<rect x="238" y="46" width="12" height="12" fill="#d97757"/>
<rect x="46" y="58" width="12" height="12" fill="#d97757"/>
<rect x="58" y="58" width="12" height="12" fill="#d97757"/>
<rect x="214" y="58" width="12" height="12" fill="#d97757"/>
<rect x="226" y="58" width="12" height="12" fill="#d97757"/>
<rect x="46" y="70" width="12" height="12" fill="#5c2e1a"/>
<rect x="58" y="70" width="12" height="12" fill="#5c2e1a"/>
<rect x="70" y="70" width="12" height="12" fill="#5c2e1a"/>
<rect x="82" y="70" width="12" height="12" fill="#5c2e1a"/>
<rect x="94" y="70" width="12" height="12" fill="#5c2e1a"/>
<rect x="106" y="70" width="12" height="12" fill="#5c2e1a"/>
<rect x="118" y="70" width="12" height="12" fill="#5c2e1a"/>
<rect x="130" y="70" width="12" height="12" fill="#5c2e1a"/>
<rect x="142" y="70" width="12" height="12" fill="#5c2e1a"/>
<rect x="154" y="70" width="12" height="12" fill="#5c2e1a"/>
<rect x="166" y="70" width="12" height="12" fill="#5c2e1a"/>
<rect x="178" y="70" width="12" height="12" fill="#5c2e1a"/>
<rect x="190" y="70" width="12" height="12" fill="#5c2e1a"/>
<rect x="202" y="70" width="12" height="12" fill="#5c2e1a"/>
<rect x="214" y="70" width="12" height="12" fill="#5c2e1a"/>
<rect x="226" y="70" width="12" height="12" fill="#5c2e1a"/>
<rect x="46" y="82" width="12" height="12" fill="#5c2e1a"/>
<rect x="58" y="82" width="12" height="12" fill="#e8956f"/>
<rect x="70" y="82" width="12" height="12" fill="#e8956f"/>
<rect x="82" y="82" width="12" height="12" fill="#d97757"/>
<rect x="94" y="82" width="12" height="12" fill="#d97757"/>
<rect x="106" y="82" width="12" height="12" fill="#d97757"/>
<rect x="118" y="82" width="12" height="12" fill="#d97757"/>
<rect x="130" y="82" width="12" height="12" fill="#d97757"/>
<rect x="142" y="82" width="12" height="12" fill="#d97757"/>
<rect x="154" y="82" width="12" height="12" fill="#d97757"/>
<rect x="166" y="82" width="12" height="12" fill="#d97757"/>
<rect x="178" y="82" width="12" height="12" fill="#d97757"/>
<rect x="190" y="82" width="12" height="12" fill="#d97757"/>
<rect x="202" y="82" width="12" height="12" fill="#c6613f"/>
<rect x="214" y="82" width="12" height="12" fill="#c6613f"/>
<rect x="226" y="82" width="12" height="12" fill="#5c2e1a"/>
<rect x="46" y="94" width="12" height="12" fill="#5c2e1a"/>
<rect x="58" y="94" width="12" height="12" fill="#d97757"/>
<rect x="70" y="94" width="12" height="12" fill="#d97757"/>
<rect x="82" y="94" width="12" height="12" fill="#fdf8f0"/>
<rect x="94" y="94" width="12" height="12" fill="#2a1408"/>
<rect x="106" y="94" width="12" height="12" fill="#d97757"/>
<rect x="118" y="94" width="12" height="12" fill="#d97757"/>
<rect x="130" y="94" width="12" height="12" fill="#d97757"/>
<rect x="142" y="94" width="12" height="12" fill="#d97757"/>
<rect x="154" y="94" width="12" height="12" fill="#d97757"/>
<rect x="166" y="94" width="12" height="12" fill="#d97757"/>
<rect x="178" y="94" width="12" height="12" fill="#fdf8f0"/>
<rect x="190" y="94" width="12" height="12" fill="#2a1408"/>
<rect x="202" y="94" width="12" height="12" fill="#d97757"/>
<rect x="214" y="94" width="12" height="12" fill="#d97757"/>
<rect x="226" y="94" width="12" height="12" fill="#5c2e1a"/>
<rect x="46" y="106" width="12" height="12" fill="#5c2e1a"/>
<rect x="58" y="106" width="12" height="12" fill="#d97757"/>
<rect x="70" y="106" width="12" height="12" fill="#d97757"/>
<rect x="82" y="106" width="12" height="12" fill="#2a1408"/>
<rect x="94" y="106" width="12" height="12" fill="#2a1408"/>
<rect x="106" y="106" width="12" height="12" fill="#d97757"/>
<rect x="118" y="106" width="12" height="12" fill="#d97757"/>
<rect x="130" y="106" width="12" height="12" fill="#d97757"/>
<rect x="142" y="106" width="12" height="12" fill="#d97757"/>
<rect x="154" y="106" width="12" height="12" fill="#d97757"/>
<rect x="166" y="106" width="12" height="12" fill="#d97757"/>
<rect x="178" y="106" width="12" height="12" fill="#2a1408"/>
<rect x="190" y="106" width="12" height="12" fill="#2a1408"/>
<rect x="202" y="106" width="12" height="12" fill="#d97757"/>
<rect x="214" y="106" width="12" height="12" fill="#d97757"/>
<rect x="226" y="106" width="12" height="12" fill="#5c2e1a"/>
<rect x="46" y="118" width="12" height="12" fill="#5c2e1a"/>
<rect x="58" y="118" width="12" height="12" fill="#d97757"/>
<rect x="70" y="118" width="12" height="12" fill="#ef9a86"/>
<rect x="82" y="118" width="12" height="12" fill="#d97757"/>
<rect x="94" y="118" width="12" height="12" fill="#d97757"/>
<rect x="106" y="118" width="12" height="12" fill="#d97757"/>
<rect x="118" y="118" width="12" height="12" fill="#d97757"/>
<rect x="130" y="118" width="12" height="12" fill="#d97757"/>
<rect x="142" y="118" width="12" height="12" fill="#d97757"/>
<rect x="154" y="118" width="12" height="12" fill="#d97757"/>
<rect x="166" y="118" width="12" height="12" fill="#d97757"/>
<rect x="178" y="118" width="12" height="12" fill="#d97757"/>
<rect x="190" y="118" width="12" height="12" fill="#d97757"/>
<rect x="202" y="118" width="12" height="12" fill="#ef9a86"/>
<rect x="214" y="118" width="12" height="12" fill="#d97757"/>
<rect x="226" y="118" width="12" height="12" fill="#5c2e1a"/>
<rect x="46" y="130" width="12" height="12" fill="#5c2e1a"/>
<rect x="58" y="130" width="12" height="12" fill="#d97757"/>
<rect x="70" y="130" width="12" height="12" fill="#d97757"/>
<rect x="82" y="130" width="12" height="12" fill="#d97757"/>
<rect x="94" y="130" width="12" height="12" fill="#d97757"/>
<rect x="106" y="130" width="12" height="12" fill="#6a3220"/>
<rect x="118" y="130" width="12" height="12" fill="#d97757"/>
<rect x="130" y="130" width="12" height="12" fill="#d97757"/>
<rect x="142" y="130" width="12" height="12" fill="#d97757"/>
<rect x="154" y="130" width="12" height="12" fill="#d97757"/>
<rect x="166" y="130" width="12" height="12" fill="#6a3220"/>
<rect x="178" y="130" width="12" height="12" fill="#d97757"/>
<rect x="190" y="130" width="12" height="12" fill="#d97757"/>
<rect x="202" y="130" width="12" height="12" fill="#d97757"/>
<rect x="214" y="130" width="12" height="12" fill="#d97757"/>
<rect x="226" y="130" width="12" height="12" fill="#5c2e1a"/>
<rect x="46" y="142" width="12" height="12" fill="#5c2e1a"/>
<rect x="58" y="142" width="12" height="12" fill="#d97757"/>
<rect x="70" y="142" width="12" height="12" fill="#d97757"/>
<rect x="82" y="142" width="12" height="12" fill="#d97757"/>
<rect x="94" y="142" width="12" height="12" fill="#d97757"/>
<rect x="106" y="142" width="12" height="12" fill="#d97757"/>
<rect x="118" y="142" width="12" height="12" fill="#6a3220"/>
<rect x="130" y="142" width="12" height="12" fill="#6a3220"/>
<rect x="142" y="142" width="12" height="12" fill="#6a3220"/>
<rect x="154" y="142" width="12" height="12" fill="#6a3220"/>
<rect x="166" y="142" width="12" height="12" fill="#d97757"/>
<rect x="178" y="142" width="12" height="12" fill="#d97757"/>
<rect x="190" y="142" width="12" height="12" fill="#d97757"/>
<rect x="202" y="142" width="12" height="12" fill="#d97757"/>
<rect x="214" y="142" width="12" height="12" fill="#d97757"/>
<rect x="226" y="142" width="12" height="12" fill="#5c2e1a"/>
<rect x="46" y="154" width="12" height="12" fill="#5c2e1a"/>
<rect x="58" y="154" width="12" height="12" fill="#c6613f"/>
<rect x="70" y="154" width="12" height="12" fill="#d97757"/>
<rect x="82" y="154" width="12" height="12" fill="#d97757"/>
<rect x="94" y="154" width="12" height="12" fill="#d97757"/>
<rect x="106" y="154" width="12" height="12" fill="#d97757"/>
<rect x="118" y="154" width="12" height="12" fill="#d97757"/>
<rect x="130" y="154" width="12" height="12" fill="#d97757"/>
<rect x="142" y="154" width="12" height="12" fill="#d97757"/>
<rect x="154" y="154" width="12" height="12" fill="#d97757"/>
<rect x="166" y="154" width="12" height="12" fill="#d97757"/>
<rect x="178" y="154" width="12" height="12" fill="#d97757"/>
<rect x="190" y="154" width="12" height="12" fill="#d97757"/>
<rect x="202" y="154" width="12" height="12" fill="#d97757"/>
<rect x="214" y="154" width="12" height="12" fill="#c6613f"/>
<rect x="226" y="154" width="12" height="12" fill="#5c2e1a"/>
<rect x="46" y="166" width="12" height="12" fill="#5c2e1a"/>
<rect x="58" y="166" width="12" height="12" fill="#5c2e1a"/>
<rect x="70" y="166" width="12" height="12" fill="#d97757"/>
<rect x="82" y="166" width="12" height="12" fill="#d97757"/>
<rect x="94" y="166" width="12" height="12" fill="#d97757"/>
<rect x="106" y="166" width="12" height="12" fill="#d97757"/>
<rect x="118" y="166" width="12" height="12" fill="#d97757"/>
<rect x="130" y="166" width="12" height="12" fill="#d97757"/>
<rect x="142" y="166" width="12" height="12" fill="#d97757"/>
<rect x="154" y="166" width="12" height="12" fill="#d97757"/>
<rect x="166" y="166" width="12" height="12" fill="#d97757"/>
<rect x="178" y="166" width="12" height="12" fill="#d97757"/>
<rect x="190" y="166" width="12" height="12" fill="#d97757"/>
<rect x="202" y="166" width="12" height="12" fill="#d97757"/>
<rect x="214" y="166" width="12" height="12" fill="#5c2e1a"/>
<rect x="226" y="166" width="12" height="12" fill="#5c2e1a"/>
<rect x="34" y="178" width="12" height="12" fill="#5c2e1a"/>
<rect x="58" y="178" width="12" height="12" fill="#5c2e1a"/>
<rect x="94" y="178" width="12" height="12" fill="#5c2e1a"/>
<rect x="178" y="178" width="12" height="12" fill="#5c2e1a"/>
<rect x="214" y="178" width="12" height="12" fill="#5c2e1a"/>
<rect x="238" y="178" width="12" height="12" fill="#5c2e1a"/>
    <rect class="lid" x="82" y="94" width="24" height="24" fill="#d97757"/>
<rect class="lid" x="178" y="94" width="24" height="24" fill="#d97757"/>
  </g>
</svg>
