<svg width="760" height="214" viewBox="0 0 760 214" xmlns="http://www.w3.org/2000/svg">
  <defs><radialGradient id="glow-nf" cx="8%" cy="20%" r="45%">
    <stop offset="0%" stop-color="#7c3aed" stop-opacity="0.09"/><stop offset="100%" stop-color="#7c3aed" stop-opacity="0"/>
  </radialGradient></defs>
  <rect width="760" height="214" rx="8" fill="#07030f"/>
  <rect width="760" height="214" rx="8" fill="url(#glow-nf)"/>
  <rect width="760" height="214" rx="8" fill="none" stroke="#2a0d60" stroke-width="1"/>
  <style>.mono { font-family:'SF Mono','Cascadia Code','Fira Code','Courier New',monospace; font-size:14px; }</style>
  <g shape-rendering="crispEdges"><rect class="claw-a" x="52" y="39" width="9" height="9" fill="#5c2e1a"/>
<rect class="claw-a" x="61" y="39" width="9" height="9" fill="#5c2e1a"/>
<rect class="claw-b" x="196" y="39" width="9" height="9" fill="#5c2e1a"/>
<rect class="claw-b" x="205" y="39" width="9" height="9" fill="#5c2e1a"/>
<rect class="claw-a" x="43" y="48" width="9" height="9" fill="#5c2e1a"/>
<rect class="claw-a" x="52" y="48" width="9" height="9" fill="#d97757"/>
<rect class="claw-a" x="61" y="48" width="9" height="9" fill="#d97757"/>
<rect class="claw-a" x="70" y="48" width="9" height="9" fill="#5c2e1a"/>
<rect class="claw-b" x="187" y="48" width="9" height="9" fill="#5c2e1a"/>
<rect class="claw-b" x="196" y="48" width="9" height="9" fill="#d97757"/>
<rect class="claw-b" x="205" y="48" width="9" height="9" fill="#d97757"/>
<rect class="claw-b" x="214" y="48" width="9" height="9" fill="#5c2e1a"/>
<rect class="claw-a" x="43" y="57" width="9" height="9" fill="#5c2e1a"/>
<rect class="claw-a" x="52" y="57" width="9" height="9" fill="#d97757"/>
<rect class="claw-a" x="61" y="57" width="9" height="9" fill="#5c2e1a"/>
<rect class="claw-b" x="196" y="57" width="9" height="9" fill="#5c2e1a"/>
<rect class="claw-b" x="205" y="57" width="9" height="9" fill="#d97757"/>
<rect class="claw-b" x="214" y="57" width="9" height="9" fill="#5c2e1a"/>
<rect class="claw-a" x="52" y="66" width="9" height="9" fill="#d97757"/>
<rect class="claw-a" x="61" y="66" width="9" height="9" fill="#5c2e1a"/>
<rect class="claw-b" x="196" y="66" width="9" height="9" fill="#5c2e1a"/>
<rect class="claw-b" x="205" y="66" width="9" height="9" fill="#d97757"/>
<rect class="claw-a" x="61" y="75" width="9" height="9" fill="#d97757"/>
<rect class="claw-a" x="70" y="75" width="9" height="9" fill="#d97757"/>
<rect class="claw-b" x="187" y="75" width="9" height="9" fill="#d97757"/>
<rect class="claw-b" x="196" y="75" width="9" height="9" fill="#d97757"/>
<rect x="61" y="84" width="9" height="9" fill="#5c2e1a"/>
<rect x="70" y="84" width="9" height="9" fill="#5c2e1a"/>
<rect x="79" y="84" width="9" height="9" fill="#5c2e1a"/>
<rect x="88" y="84" width="9" height="9" fill="#5c2e1a"/>
<rect x="97" y="84" width="9" height="9" fill="#5c2e1a"/>
<rect x="106" y="84" width="9" height="9" fill="#5c2e1a"/>
<rect x="115" y="84" width="9" height="9" fill="#5c2e1a"/>
<rect x="124" y="84" width="9" height="9" fill="#5c2e1a"/>
<rect x="133" y="84" width="9" height="9" fill="#5c2e1a"/>
<rect x="142" y="84" width="9" height="9" fill="#5c2e1a"/>
<rect x="151" y="84" width="9" height="9" fill="#5c2e1a"/>
<rect x="160" y="84" width="9" height="9" fill="#5c2e1a"/>
<rect x="169" y="84" width="9" height="9" fill="#5c2e1a"/>
<rect x="178" y="84" width="9" height="9" fill="#5c2e1a"/>
<rect x="187" y="84" width="9" height="9" fill="#5c2e1a"/>
<rect x="196" y="84" width="9" height="9" fill="#5c2e1a"/>
<rect x="61" y="93" width="9" height="9" fill="#5c2e1a"/>
<rect x="70" y="93" width="9" height="9" fill="#e8956f"/>
<rect x="79" y="93" width="9" height="9" fill="#e8956f"/>
<rect x="88" y="93" width="9" height="9" fill="#d97757"/>
<rect x="97" y="93" width="9" height="9" fill="#d97757"/>
<rect x="106" y="93" width="9" height="9" fill="#d97757"/>
<rect x="115" y="93" width="9" height="9" fill="#d97757"/>
<rect x="124" y="93" width="9" height="9" fill="#d97757"/>
<rect x="133" y="93" width="9" height="9" fill="#d97757"/>
<rect x="142" y="93" width="9" height="9" fill="#d97757"/>
<rect x="151" y="93" width="9" height="9" fill="#d97757"/>
<rect x="160" y="93" width="9" height="9" fill="#d97757"/>
<rect x="169" y="93" width="9" height="9" fill="#d97757"/>
<rect x="178" y="93" width="9" height="9" fill="#c6613f"/>
<rect x="187" y="93" width="9" height="9" fill="#c6613f"/>
<rect x="196" y="93" width="9" height="9" fill="#5c2e1a"/>
<rect x="61" y="102" width="9" height="9" fill="#5c2e1a"/>
<rect x="70" y="102" width="9" height="9" fill="#d97757"/>
<rect x="79" y="102" width="9" height="9" fill="#d97757"/>
<rect x="88" y="102" width="9" height="9" fill="#fdf8f0"/>
<rect x="97" y="102" width="9" height="9" fill="#2a1408"/>
<rect x="106" y="102" width="9" height="9" fill="#d97757"/>
<rect x="115" y="102" width="9" height="9" fill="#d97757"/>
<rect x="124" y="102" width="9" height="9" fill="#d97757"/>
<rect x="133" y="102" width="9" height="9" fill="#d97757"/>
<rect x="142" y="102" width="9" height="9" fill="#d97757"/>
<rect x="151" y="102" width="9" height="9" fill="#d97757"/>
<rect x="160" y="102" width="9" height="9" fill="#fdf8f0"/>
<rect x="169" y="102" width="9" height="9" fill="#2a1408"/>
<rect x="178" y="102" width="9" height="9" fill="#d97757"/>
<rect x="187" y="102" width="9" height="9" fill="#d97757"/>
<rect x="196" y="102" width="9" height="9" fill="#5c2e1a"/>
<rect x="61" y="111" width="9" height="9" fill="#5c2e1a"/>
<rect x="70" y="111" width="9" height="9" fill="#d97757"/>
<rect x="79" y="111" width="9" height="9" fill="#d97757"/>
<rect x="88" y="111" width="9" height="9" fill="#2a1408"/>
<rect x="97" y="111" width="9" height="9" fill="#2a1408"/>
<rect x="106" y="111" width="9" height="9" fill="#d97757"/>
<rect x="115" y="111" width="9" height="9" fill="#d97757"/>
<rect x="124" y="111" width="9" height="9" fill="#d97757"/>
<rect x="133" y="111" width="9" height="9" fill="#d97757"/>
<rect x="142" y="111" width="9" height="9" fill="#d97757"/>
<rect x="151" y="111" width="9" height="9" fill="#d97757"/>
<rect x="160" y="111" width="9" height="9" fill="#2a1408"/>
<rect x="169" y="111" width="9" height="9" fill="#2a1408"/>
<rect x="178" y="111" width="9" height="9" fill="#d97757"/>
<rect x="187" y="111" width="9" height="9" fill="#d97757"/>
<rect x="196" y="111" width="9" height="9" fill="#5c2e1a"/>
<rect x="61" y="120" width="9" height="9" fill="#5c2e1a"/>
<rect x="70" y="120" width="9" height="9" fill="#d97757"/>
<rect x="79" y="120" width="9" height="9" fill="#ef9a86"/>
<rect x="88" y="120" width="9" height="9" fill="#d97757"/>
<rect x="97" y="120" width="9" height="9" fill="#d97757"/>
<rect x="106" y="120" width="9" height="9" fill="#d97757"/>
<rect x="115" y="120" width="9" height="9" fill="#d97757"/>
<rect x="124" y="120" width="9" height="9" fill="#d97757"/>
<rect x="133" y="120" width="9" height="9" fill="#d97757"/>
<rect x="142" y="120" width="9" height="9" fill="#d97757"/>
<rect x="151" y="120" width="9" height="9" fill="#d97757"/>
<rect x="160" y="120" width="9" height="9" fill="#d97757"/>
<rect x="169" y="120" width="9" height="9" fill="#d97757"/>
<rect x="178" y="120" width="9" height="9" fill="#ef9a86"/>
<rect x="187" y="120" width="9" height="9" fill="#d97757"/>
<rect x="196" y="120" width="9" height="9" fill="#5c2e1a"/>
<rect x="61" y="129" width="9" height="9" fill="#5c2e1a"/>
<rect x="70" y="129" width="9" height="9" fill="#d97757"/>
<rect x="79" y="129" width="9" height="9" fill="#d97757"/>
<rect x="88" y="129" width="9" height="9" fill="#d97757"/>
<rect x="97" y="129" width="9" height="9" fill="#d97757"/>
<rect x="106" y="129" width="9" height="9" fill="#6a3220"/>
<rect x="115" y="129" width="9" height="9" fill="#d97757"/>
<rect x="124" y="129" width="9" height="9" fill="#d97757"/>
<rect x="133" y="129" width="9" height="9" fill="#d97757"/>
<rect x="142" y="129" width="9" height="9" fill="#d97757"/>
<rect x="151" y="129" width="9" height="9" fill="#6a3220"/>
<rect x="160" y="129" width="9" height="9" fill="#d97757"/>
<rect x="169" y="129" width="9" height="9" fill="#d97757"/>
<rect x="178" y="129" width="9" height="9" fill="#d97757"/>
<rect x="187" y="129" width="9" height="9" fill="#d97757"/>
<rect x="196" y="129" width="9" height="9" fill="#5c2e1a"/>
<rect x="61" y="138" width="9" height="9" fill="#5c2e1a"/>
<rect x="70" y="138" width="9" height="9" fill="#d97757"/>
<rect x="79" y="138" width="9" height="9" fill="#d97757"/>
<rect x="88" y="138" width="9" height="9" fill="#d97757"/>
<rect x="97" y="138" width="9" height="9" fill="#d97757"/>
<rect x="106" y="138" width="9" height="9" fill="#d97757"/>
<rect x="115" y="138" width="9" height="9" fill="#6a3220"/>
<rect x="124" y="138" width="9" height="9" fill="#6a3220"/>
<rect x="133" y="138" width="9" height="9" fill="#6a3220"/>
<rect x="142" y="138" width="9" height="9" fill="#6a3220"/>
<rect x="151" y="138" width="9" height="9" fill="#d97757"/>
<rect x="160" y="138" width="9" height="9" fill="#d97757"/>
<rect x="169" y="138" width="9" height="9" fill="#d97757"/>
<rect x="178" y="138" width="9" height="9" fill="#d97757"/>
<rect x="187" y="138" width="9" height="9" fill="#d97757"/>
<rect x="196" y="138" width="9" height="9" fill="#5c2e1a"/>
<rect x="61" y="147" width="9" height="9" fill="#5c2e1a"/>
<rect x="70" y="147" width="9" height="9" fill="#c6613f"/>
<rect x="79" y="147" width="9" height="9" fill="#d97757"/>
<rect x="88" y="147" width="9" height="9" fill="#d97757"/>
<rect x="97" y="147" width="9" height="9" fill="#d97757"/>
<rect x="106" y="147" width="9" height="9" fill="#d97757"/>
<rect x="115" y="147" width="9" height="9" fill="#d97757"/>
<rect x="124" y="147" width="9" height="9" fill="#d97757"/>
<rect x="133" y="147" width="9" height="9" fill="#d97757"/>
<rect x="142" y="147" width="9" height="9" fill="#d97757"/>
<rect x="151" y="147" width="9" height="9" fill="#d97757"/>
<rect x="160" y="147" width="9" height="9" fill="#d97757"/>
<rect x="169" y="147" width="9" height="9" fill="#d97757"/>
<rect x="178" y="147" width="9" height="9" fill="#d97757"/>
<rect x="187" y="147" width="9" height="9" fill="#c6613f"/>
<rect x="196" y="147" width="9" height="9" fill="#5c2e1a"/>
<rect x="61" y="156" width="9" height="9" fill="#5c2e1a"/>
<rect x="70" y="156" width="9" height="9" fill="#5c2e1a"/>
<rect x="79" y="156" width="9" height="9" fill="#d97757"/>
<rect x="88" y="156" width="9" height="9" fill="#d97757"/>
<rect x="97" y="156" width="9" height="9" fill="#d97757"/>
<rect x="106" y="156" width="9" height="9" fill="#d97757"/>
<rect x="115" y="156" width="9" height="9" fill="#d97757"/>
<rect x="124" y="156" width="9" height="9" fill="#d97757"/>
<rect x="133" y="156" width="9" height="9" fill="#d97757"/>
<rect x="142" y="156" width="9" height="9" fill="#d97757"/>
<rect x="151" y="156" width="9" height="9" fill="#d97757"/>
<rect x="160" y="156" width="9" height="9" fill="#d97757"/>
<rect x="169" y="156" width="9" height="9" fill="#d97757"/>
<rect x="178" y="156" width="9" height="9" fill="#d97757"/>
<rect x="187" y="156" width="9" height="9" fill="#5c2e1a"/>
<rect x="196" y="156" width="9" height="9" fill="#5c2e1a"/>
<rect class="leg-a" x="52" y="165" width="9" height="9" fill="#5c2e1a"/>
<rect class="leg-a" x="70" y="165" width="9" height="9" fill="#5c2e1a"/>
<rect class="leg-a" x="97" y="165" width="9" height="9" fill="#5c2e1a"/>
<rect class="leg-b" x="160" y="165" width="9" height="9" fill="#5c2e1a"/>
<rect class="leg-b" x="187" y="165" width="9" height="9" fill="#5c2e1a"/>
<rect class="leg-b" x="205" y="165" width="9" height="9" fill="#5c2e1a"/></g>
  <text class="mono" y="40"><tspan x="268" fill="#c084fc" font-weight="700">al-khali</tspan><tspan fill="#6b4fa0">@</tspan><tspan fill="#818cf8">wired</tspan></text>
<line x1="268" y1="50" x2="720" y2="50" stroke="#2a0d60" stroke-width="1"/>
<text class="mono" y="74"><tspan x="268" fill="#a855f7">os</tspan><tspan x="360" fill="#2e1060">:</tspan><tspan x="376" fill="#c084fc">Arch Linux · macOS</tspan></text>
<text class="mono" y="94"><tspan x="268" fill="#a855f7">uptime</tspan><tspan x="360" fill="#2e1060">:</tspan><tspan x="376" fill="#c084fc">~10 years · online since 2016</tspan></text>
<text class="mono" y="114"><tspan x="268" fill="#a855f7">shell</tspan><tspan x="360" fill="#2e1060">:</tspan><tspan x="376" fill="#c084fc">zsh · tmux · kitty</tspan></text>
<text class="mono" y="134"><tspan x="268" fill="#a855f7">editor</tspan><tspan x="360" fill="#2e1060">:</tspan><tspan x="376" fill="#c084fc">neovim</tspan></text>
<text class="mono" y="154"><tspan x="268" fill="#a855f7">langs</tspan><tspan x="360" fill="#2e1060">:</tspan><tspan x="376" fill="#c084fc">python · go · rust · zig</tspan></text>
<text class="mono" y="174"><tspan x="268" fill="#a855f7">cloud</tspan><tspan x="360" fill="#2e1060">:</tspan><tspan x="376" fill="#c084fc">agent platform · gcp × anthropic</tspan></text>
<text class="mono" y="194"><tspan x="268" fill="#a855f7">role</tspan><tspan x="360" fill="#2e1060">:</tspan><tspan x="376" fill="#c084fc">AI Engineer @ Valtech</tspan></text>
  <rect x="268" y="214" width="15" height="12" rx="2" fill="#4c1d95"/><rect x="288" y="214" width="15" height="12" rx="2" fill="#7c3aed"/><rect x="308" y="214" width="15" height="12" rx="2" fill="#9333ea"/><rect x="328" y="214" width="15" height="12" rx="2" fill="#a855f7"/><rect x="348" y="214" width="15" height="12" rx="2" fill="#c084fc"/><rect x="368" y="214" width="15" height="12" rx="2" fill="#818cf8"/><rect x="388" y="214" width="15" height="12" rx="2" fill="#6366f1"/><rect x="408" y="214" width="15" height="12" rx="2" fill="#d97757"/>
</svg>
